<?xml version="1.0" standalone="no"?>
<!DOCTYPE svg PUBLIC "-//W3C//DTD SVG 20010904//EN"
 "http://www.w3.org/TR/2001/REC-SVG-20010904/DTD/svg10.dtd">
<svg version="1.0" xmlns="http://www.w3.org/2000/svg"
 width="519.000000pt" height="519.000000pt" viewBox="0 0 519.000000 519.000000"
 preserveAspectRatio="xMidYMid meet">

<g transform="translate(0.000000,519.000000) scale(0.100000,-0.100000)"
fill="#000000" stroke="none">
<path d="M0 2595 l0 -2595 2595 0 2595 0 0 2595 0 2595 -2595 0 -2595 0 0
-2595z m2829 2125 c191 -53 324 -176 377 -349 11 -38 14 -183 14 -824 0 -428
-4 -776 -9 -773 -4 3 -18 34 -31 68 -27 76 -318 864 -436 1179 -46 124 -84
231 -84 237 0 8 23 12 73 12 l73 0 83 -227 c132 -358 119 -355 120 -31 1 256
-1 281 -19 330 -37 95 -109 155 -219 184 -163 41 -329 -32 -395 -175 -21 -46
-21 -54 -21 -826 l0 -780 24 -52 c97 -216 445 -243 579 -46 39 59 52 101 52
172 0 36 3 52 10 45 12 -12 120 -299 120 -319 0 -25 -114 -129 -180 -164 -319
-170 -719 -13 -805 314 -23 88 -23 1572 0 1660 24 91 72 170 142 234 144 133
346 182 532 131z m-1840 -25 c201 -48 367 -207 401 -386 11 -56 14 -639 4
-676 -4 -13 -9 -23 -13 -23 -3 0 -47 114 -98 253 -82 225 -92 261 -97 339 -8
139 -60 219 -181 275 -60 28 -62 28 -265 28 l-205 0 -3 -547 -2 -548 200 0
c224 0 280 12 347 74 l34 31 -139 380 c-77 209 -138 383 -135 388 2 4 35 7 73
7 l69 0 21 -57 c12 -32 48 -130 80 -218 32 -88 93 -256 135 -373 l78 -213 -24
-25 c-13 -14 -50 -42 -83 -62 -50 -31 -56 -38 -41 -47 111 -66 196 -155 229
-241 23 -61 33 -239 17 -313 -38 -180 -197 -334 -397 -385 -50 -13 -121 -16
-368 -16 l-306 0 0 1178 c0 648 3 1182 7 1185 3 4 139 7 302 7 229 0 311 -4
360 -15z m4009 -60 c5 -124 25 -114 -221 -117 l-212 -3 -3 -740 c-1 -406 -6
-743 -11 -748 -5 -5 -17 16 -29 50 -23 67 -342 939 -514 1406 -11 30 -9 29
-58 31 l-35 2 -3 97 -3 97 543 -2 543 -3 3 -70z m-544 -1770 c110 -300 108
-292 104 -415 l-3 -105 -105 0 -105 0 -3 380 c-1 209 1 387 4 395 8 19 3 30
108 -255z m-944 -995 c9 -17 6 -25 -15 -45 -20 -21 -28 -24 -45 -15 -19 10
-28 58 -13 73 15 15 63 6 73 -13z m-2020 -127 c0 -76 3 -155 7 -176 l6 -38
-49 3 c-38 2 -48 6 -44 18 10 32 11 270 0 289 -9 18 -6 21 22 30 60 17 58 22
58 -126z m-767 106 c50 -13 68 -49 46 -88 -15 -25 -14 -28 13 -54 62 -62 21
-158 -73 -172 -24 -3 -73 -5 -109 -3 -52 2 -64 6 -60 18 10 31 11 253 1 281
l-10 29 77 0 c42 0 94 -5 115 -11z m1642 -13 c29 -19 32 -42 8 -68 -17 -19
-58 -24 -68 -8 -3 5 0 18 7 29 10 17 10 23 -3 36 -9 9 -23 13 -32 9 -24 -9
-23 -69 1 -79 16 -6 16 -7 -2 -20 -16 -12 -18 -25 -14 -109 l4 -96 -49 0 c-43
0 -48 2 -42 18 4 9 10 52 13 94 4 66 2 79 -12 84 -20 8 -21 34 -1 34 10 0 15
10 15 28 0 28 19 53 50 65 25 11 98 0 125 -17z m-1155 -32 c0 -13 5 -24 11
-24 8 0 8 -4 2 -12 -11 -14 -24 -174 -16 -195 3 -7 12 -13 21 -13 15 -1 14 -3
-2 -15 -27 -20 -52 -19 -76 5 -17 17 -20 33 -20 111 0 76 -3 94 -17 105 -11 8
-13 13 -5 14 6 0 12 6 12 14 0 14 69 47 83 39 4 -2 7 -15 7 -29z m1410 1 c0
-13 6 -26 13 -29 10 -5 10 -7 0 -12 -9 -4 -13 -35 -13 -104 0 -86 2 -99 18
-103 14 -3 12 -6 -11 -17 -22 -11 -32 -11 -51 0 -30 16 -36 36 -36 134 0 63
-3 81 -17 92 -11 8 -13 13 -5 14 6 0 12 6 12 14 0 14 69 46 83 39 4 -2 7 -15
7 -28z m-1270 0 c0 -17 6 -25 18 -25 16 -1 16 -1 0 -14 -15 -11 -18 -29 -18
-104 0 -76 3 -93 18 -101 15 -9 15 -12 2 -21 -21 -14 -42 -12 -68 6 -20 14
-22 23 -22 115 0 81 -3 99 -15 99 -18 0 -19 12 -3 28 7 7 8 12 3 12 -16 1 48
28 68 29 12 1 17 -7 17 -24z m2290 0 c0 -17 6 -25 18 -25 16 -1 16 -1 0 -14
-15 -11 -18 -29 -18 -105 0 -85 1 -92 22 -100 l22 -8 -21 -12 c-31 -16 -50
-14 -73 9 -17 17 -20 33 -20 115 0 78 -3 95 -15 95 -27 0 -8 36 30 58 34 20
55 15 55 -13z m-2615 -19 c40 -17 42 -25 48 -159 l4 -99 -31 6 c-38 8 -51 8
-98 0 -72 -12 -128 21 -128 75 0 45 29 71 100 90 70 19 92 40 71 65 -20 24
-50 20 -61 -9 -8 -22 -14 -24 -37 -19 -35 9 -37 10 -29 29 13 34 101 46 161
21z m680 0 c42 -18 75 -77 59 -104 -9 -13 -29 -18 -88 -20 -72 -3 -76 -4 -76
-26 0 -27 35 -76 54 -76 22 0 46 34 39 58 -4 18 -1 22 20 22 56 0 59 -57 4
-91 -55 -33 -139 -16 -172 35 -21 32 -24 111 -6 155 24 55 96 76 166 47z m379
0 c20 -8 39 -27 49 -49 60 -125 -58 -255 -170 -187 -36 22 -49 41 -58 91 -22
115 71 190 179 145z m760 0 c21 -9 39 -27 51 -52 27 -57 14 -68 -79 -72 l-76
-3 0 -29 c0 -31 30 -70 54 -70 22 0 39 28 32 55 -6 23 -3 25 23 25 37 0 57
-30 41 -60 -27 -50 -118 -63 -176 -25 -74 48 -69 197 8 230 42 18 80 19 122 1z
m297 -15 c22 -27 24 -41 7 -63 -17 -21 -49 -30 -68 -18 -12 7 -12 12 -1 34 18
32 8 56 -23 56 -34 0 -39 -25 -34 -151 l4 -100 -46 3 c-42 3 -45 5 -40 28 7
38 6 152 -2 181 -7 24 -4 28 30 41 21 9 63 15 96 14 48 -1 62 -6 77 -25z m221
18 c13 -7 26 -17 30 -23 27 -40 -20 -98 -61 -76 -19 10 -20 12 -6 34 21 32 10
58 -24 54 -22 -3 -27 -9 -32 -43 -6 -35 -4 -151 4 -188 1 -8 -14 -13 -43 -15
l-46 -3 4 101 c3 67 1 105 -7 113 -19 19 -13 26 35 40 62 18 119 20 146 6z
m150 -132 l3 -127 -48 0 c-46 0 -48 1 -40 23 10 28 10 187 0 208 -6 12 1 17
30 25 21 6 41 8 45 5 3 -3 8 -63 10 -134z m352 133 c88 -33 86 -209 -2 -249
-54 -25 -131 -1 -157 50 -23 43 -17 139 11 170 34 38 95 50 148 29z m295 -14
c27 -24 27 -50 0 -77 -14 -14 -27 -18 -42 -13 -31 9 -32 11 -17 38 18 35 6 58
-27 54 l-28 -3 0 -123 0 -122 -48 0 c-47 0 -47 0 -40 28 10 35 10 149 1 184
-7 24 -5 27 35 41 58 20 140 17 166 -7z m121 -8 c0 -37 34 -134 46 -131 12 3
45 116 41 141 -4 20 0 22 36 22 33 0 37 -2 28 -14 -7 -8 -32 -79 -56 -158 -30
-97 -51 -149 -66 -160 -37 -31 -94 -18 -87 18 4 23 38 32 38 10 0 -10 6 -13
15 -10 8 4 15 16 15 29 0 23 -81 224 -106 263 -14 22 -14 22 41 22 l55 0 0
-32z m-3555 -903 c0 -47 -2 -50 -27 -53 -24 -3 -28 0 -28 22 0 14 -6 26 -12
26 -10 0 -12 -27 -10 -110 4 -117 -6 -174 -18 -110 -6 30 -8 31 -9 8 0 -15 -5
-30 -11 -33 -6 -4 -10 39 -10 120 0 97 -3 126 -12 123 -7 -3 -14 -14 -16 -26
-2 -16 -10 -22 -28 -22 -21 0 -24 4 -24 39 0 59 25 72 125 69 l79 -3 1 -50z
m73 13 l3 -38 75 0 75 0 -3 -112 c-3 -106 -4 -111 -25 -114 -22 -4 -23 -2 -23
86 l0 90 -48 0 c-26 0 -53 -5 -58 -10 -6 -6 -17 -8 -26 -5 -11 4 -16 24 -17
76 -2 68 -1 70 21 67 19 -2 24 -10 26 -40z m919 26 c3 -9 1 -25 -6 -35 -7 -12
-7 -19 -1 -19 5 0 10 -11 10 -25 0 -14 -4 -25 -10 -25 -5 0 -10 -7 -10 -15 0
-8 5 -15 10 -15 7 0 10 -29 8 -77 l-3 -78 -97 -3 c-111 -4 -99 -16 -103 102
-2 55 0 62 29 92 25 26 41 33 76 36 41 3 45 5 43 28 -1 14 0 31 2 38 6 18 45
15 52 -4z m988 -14 c0 -23 -4 -25 -59 -28 -69 -4 -86 -17 -85 -69 1 -21 3 -30
6 -20 4 14 16 17 74 17 68 0 69 -1 69 -26 0 -25 0 -26 -74 -22 -62 2 -76 0
-85 -14 -8 -13 -8 -18 -1 -18 7 0 10 -18 8 -47 -3 -39 -6 -47 -25 -49 -22 -4
-23 -1 -23 61 0 45 4 65 13 66 10 0 10 2 0 6 -8 3 -13 25 -13 58 0 48 3 56 36
84 33 29 40 32 97 29 59 -3 62 -4 62 -28z m595 8 l9 -23 0 23 c1 14 5 20 12
17 6 -4 9 -36 8 -78 -2 -71 -2 -72 22 -68 43 6 79 39 79 72 0 26 3 30 23 27
18 -2 23 -10 25 -44 3 -35 -1 -45 -24 -63 -26 -21 -27 -22 -8 -36 10 -8 23
-15 27 -15 4 0 7 -21 5 -47 -3 -41 -6 -48 -25 -51 -20 -3 -23 1 -23 27 0 36
-40 71 -80 71 -27 0 -28 -2 -27 -46 2 -42 0 -47 -20 -49 -21 -1 -23 3 -23 42
0 27 5 43 13 44 10 0 10 2 0 6 -9 3 -13 35 -13 109 0 57 2 104 5 104 3 0 10
-10 15 -22z m-2120 -72 c0 -8 -5 -18 -10 -21 -6 -4 -8 -10 -5 -15 8 -12 -27
-22 -39 -10 -25 25 -94 2 -96 -32 0 -11 88 -10 92 1 2 5 15 13 31 16 26 7 27
6 27 -33 0 -37 -3 -41 -30 -47 -16 -4 -49 -5 -72 -4 -26 2 -43 -1 -46 -9 -3
-9 16 -12 70 -12 71 0 75 -1 73 -22 -2 -22 -5 -23 -101 -23 l-99 0 -2 78 c-2
74 0 79 29 112 29 34 32 35 104 35 58 0 74 -3 74 -14z m310 -6 c0 -11 -5 -20
-11 -20 -5 0 -8 -4 -5 -9 3 -5 -2 -12 -11 -16 -10 -3 -19 -1 -21 4 -9 28 -102
0 -102 -31 0 -11 83 -10 96 1 5 5 19 12 32 16 20 6 22 3 22 -33 0 -45 -11 -51
-95 -52 -56 -1 -99 -22 -68 -34 10 -4 19 -2 21 3 2 6 33 11 73 11 66 0 69 -1
65 -22 -3 -22 -8 -23 -100 -24 l-96 -2 0 86 c0 80 2 88 27 114 25 26 33 28
100 28 66 0 73 -2 73 -20z m460 5 c0 -9 -7 -18 -16 -22 -12 -4 -12 -8 -4 -13
9 -5 5 -10 -11 -15 -14 -5 -25 -3 -27 4 -5 15 -65 14 -80 -1 -7 -7 -12 -29
-12 -51 l0 -38 43 3 c39 3 42 5 45 36 2 17 6 32 10 32 4 0 17 3 30 6 22 6 22
6 20 -97 l-3 -104 -102 -3 -103 -3 0 25 c0 24 3 25 73 28 39 2 72 8 72 13 0 6
-33 11 -72 13 l-73 3 0 66 c0 62 3 70 32 100 30 31 35 33 105 33 59 0 73 -3
73 -15z m220 -5 c0 -11 -6 -20 -12 -20 -10 0 -10 -2 0 -9 10 -6 8 -10 -10 -14
-12 -4 -24 -2 -26 3 -10 27 -102 -2 -102 -32 0 -11 83 -10 96 1 5 5 19 12 32
16 20 6 22 3 22 -34 0 -23 -3 -41 -7 -42 -5 0 -35 -2 -67 -4 -33 -2 -70 -9
-83 -16 -20 -11 -21 -13 -6 -24 19 -14 9 -35 -18 -35 -17 0 -19 8 -19 87 0 81
2 89 27 115 25 26 33 28 100 28 66 0 73 -2 73 -20z m320 5 c0 -9 -7 -18 -16
-22 -12 -4 -12 -8 -4 -13 9 -5 5 -10 -11 -15 -14 -5 -25 -3 -27 4 -2 6 -24 11
-48 11 l-44 0 0 -65 c0 -61 1 -65 23 -65 34 1 67 34 67 68 0 22 6 31 23 36 36
9 37 8 37 -36 0 -35 -6 -49 -37 -80 -36 -37 -40 -38 -105 -38 l-68 0 0 115 0
115 105 0 c88 0 105 -3 105 -15z m390 -60 c0 -65 -2 -75 -17 -75 -14 0 -15 -2
-5 -9 11 -7 10 -10 -3 -15 -32 -12 -35 -5 -35 84 l0 90 30 0 30 0 0 -75z m150
-2 c0 -75 -1 -78 -37 -115 -36 -37 -40 -38 -105 -38 -60 0 -68 2 -68 19 0 20
25 30 75 31 17 0 40 9 53 19 19 17 22 29 22 90 l0 71 30 0 30 0 0 -77z m220
57 c0 -11 -6 -20 -12 -20 -10 0 -10 -2 0 -9 10 -6 8 -10 -10 -14 -12 -4 -24
-2 -26 3 -6 17 -68 11 -85 -8 -11 -11 -17 -41 -19 -86 -3 -63 -5 -69 -25 -72
-22 -4 -23 -1 -23 83 0 81 2 89 27 115 25 26 33 28 100 28 66 0 73 -2 73 -20z
m460 5 c0 -9 -7 -18 -15 -21 -13 -5 -13 -8 0 -21 11 -10 15 -37 15 -88 0 -65
-2 -74 -20 -80 -11 -3 -24 -3 -30 0 -15 9 -13 125 3 125 8 0 7 4 -3 10 -13 8
-12 10 4 10 20 0 20 0 0 15 -24 18 -71 19 -89 1 -9 -8 -15 -41 -17 -87 -3 -72
-4 -74 -30 -77 l-28 -3 0 82 c0 80 1 84 32 116 30 31 35 33 105 33 59 0 73 -3
73 -15z m220 -5 c0 -11 -6 -20 -12 -20 -10 0 -10 -2 0 -9 10 -6 8 -10 -9 -14
-13 -4 -26 -2 -30 4 -3 6 -26 9 -50 7 l-44 -3 -5 -57 c-4 -43 -2 -59 8 -63 43
-16 92 17 92 63 0 27 17 41 50 42 3 0 4 -21 3 -46 -2 -38 -8 -53 -34 -80 -31
-32 -37 -34 -101 -34 l-68 0 0 115 0 115 100 0 c93 0 100 -1 100 -20z m80 -32
c0 -67 -9 -98 -26 -98 -8 0 -14 -4 -14 -10 0 -5 7 -7 15 -4 8 4 15 1 15 -5 0
-6 19 -11 45 -11 40 0 45 3 45 22 0 21 0 21 -15 2 -13 -17 -14 -12 -15 59 0
76 1 78 23 75 21 -3 22 -8 22 -81 0 -42 2 -77 5 -77 3 1 15 9 28 19 19 17 22
29 22 90 0 69 1 71 25 71 25 0 25 -1 25 -85 l0 -85 -32 -20 c-18 -11 -28 -20
-23 -20 6 0 3 -5 -5 -10 -8 -5 -54 -10 -102 -10 l-88 0 0 115 0 115 25 0 c24
0 25 -3 25 -52z m430 32 c0 -11 -4 -20 -8 -20 -5 0 -9 -7 -9 -15 0 -8 4 -15 9
-15 4 0 8 -33 8 -74 0 -67 -2 -74 -22 -79 -12 -3 -25 -4 -30 -1 -12 7 -10 112
2 119 6 4 8 11 5 16 -4 5 -1 9 6 9 7 0 4 7 -7 15 -10 8 -33 15 -50 15 -40 0
-53 -25 -56 -110 -3 -62 -4 -65 -28 -65 -24 0 -25 2 -28 77 -3 73 -2 78 29
112 30 35 33 36 105 36 67 0 74 -2 74 -20z m-3649 -60 c6 0 9 -30 7 -72 -3
-66 -5 -72 -25 -73 -22 -2 -23 2 -23 78 0 68 2 78 16 73 9 -3 20 -6 25 -6z
m2459 -70 c0 -79 0 -80 -25 -80 -24 0 -25 2 -25 74 0 76 1 78 43 85 4 0 7 -35
7 -79z m-1084 -52 c-3 -21 -9 -23 -69 -26 -66 -3 -67 -2 -67 23 0 24 2 25 70
25 67 0 70 -1 66 -22z"/>
<path d="M542 3202 c-9 -6 -12 -80 -10 -333 l3 -324 200 0 c175 0 207 2 254
20 69 26 135 84 168 149 24 45 27 63 27 157 1 98 -1 109 -29 164 -20 40 -46
71 -79 96 -79 60 -126 70 -336 76 -102 2 -191 0 -198 -5z"/>
<path d="M4164 4506 c-5 -12 143 -437 166 -476 6 -9 9 80 7 235 l-2 250 -83 3
c-64 2 -84 0 -88 -12z"/>
<path d="M620 1786 c0 -41 2 -46 23 -46 37 0 59 22 55 55 -3 27 -7 30 -40 33
l-38 3 0 -45z"/>
<path d="M622 1638 c3 -71 4 -73 31 -76 33 -4 87 44 87 78 0 34 -44 70 -85 70
l-36 0 3 -72z"/>
<path d="M938 1669 c-32 -16 -38 -25 -38 -52 0 -58 40 -75 78 -34 15 16 22 36
22 65 0 48 -7 50 -62 21z"/>
<path d="M1612 1745 c-7 -14 -12 -35 -12 -46 0 -18 6 -20 48 -17 46 3 47 4 44
33 -5 38 -19 55 -47 55 -14 0 -26 -9 -33 -25z"/>
<path d="M1990 1761 c-5 -11 -10 -52 -10 -91 0 -83 11 -110 45 -110 34 0 48
32 48 110 0 36 -5 76 -12 88 -15 28 -56 29 -71 3z"/>
<path d="M2751 1751 c-6 -11 -11 -31 -11 -45 0 -24 4 -26 40 -26 46 0 59 17
44 59 -12 34 -58 42 -73 12z"/>
<path d="M3780 1765 c-19 -22 -24 -144 -8 -175 18 -33 52 -37 72 -8 20 27 21
132 3 168 -15 30 -48 37 -67 15z"/>
<path d="M1587 772 c-11 -12 -17 -36 -17 -65 l0 -47 45 0 c48 0 48 0 47 63 -1
28 3 37 15 37 14 0 14 2 -3 15 -26 20 -68 19 -87 -3z"/>
<path d="M3451 824 c0 -11 3 -14 6 -6 3 7 2 16 -1 19 -3 4 -6 -2 -5 -13z"/>
<path d="M3302 790 c0 -14 2 -19 5 -12 2 6 2 18 0 25 -3 6 -5 1 -5 -13z"/>
<path d="M3210 739 c0 -5 5 -7 10 -4 6 3 10 8 10 11 0 2 -4 4 -10 4 -5 0 -10
-5 -10 -11z"/>
</g>
</svg>
